<svg xmlns="http://www.w3.org/2000/svg" viewBox="0 0 160 16"><path fill="#999" fill-rule="evenodd" d="M156.264,7.015 L154.009,7.015 L154.009,1.420 L156.249,1.420 C157.936,1.420 159.200,2.539 159.200,4.241 C159.200,5.952 157.928,7.015 156.264,7.015 ZM156.185,2.451 L155.121,2.451 L155.121,5.984 L156.201,5.984 C157.176,5.984 158.080,5.464 158.080,4.241 C158.080,3.026 157.176,2.451 156.185,2.451 ZM151.881,5.896 L149.362,5.896 L148.938,7.015 L147.762,7.015 L150.001,1.420 L151.257,1.420 L153.497,7.015 L152.305,7.015 L151.881,5.896 ZM151.025,3.658 C150.833,3.178 150.641,2.683 150.633,2.675 L150.609,2.675 C150.601,2.683 150.409,3.170 150.218,3.658 L149.746,4.889 L151.489,4.889 L151.025,3.658 ZM144.842,7.119 C143.154,7.119 141.906,5.936 141.906,4.217 C141.906,2.491 143.154,1.308 144.842,1.308 C146.529,1.308 147.777,2.491 147.777,4.217 C147.777,5.936 146.529,7.119 144.842,7.119 ZM144.842,2.355 C143.810,2.355 143.026,3.074 143.026,4.217 C143.026,5.352 143.810,6.072 144.842,6.072 C145.873,6.072 146.657,5.361 146.657,4.217 C146.657,3.074 145.873,2.355 144.842,2.355 ZM137.950,1.420 L139.062,1.420 L139.062,5.984 L141.717,5.984 L141.717,7.015 L137.950,7.015 L137.950,1.420 ZM135.341,7.015 L134.222,7.015 L134.222,4.737 L132.110,1.420 L133.398,1.412 L134.389,3.042 C134.622,3.418 134.797,3.722 134.805,3.730 L134.829,3.730 C134.837,3.722 135.005,3.418 135.237,3.050 L136.261,1.420 L137.453,1.420 L135.341,4.737 L135.341,7.015 ZM131.577,7.015 L131.153,5.896 L128.634,5.896 L128.210,7.015 L127.034,7.015 L129.273,1.420 L130.529,1.420 L132.769,7.015 L131.577,7.015 ZM130.297,3.658 C130.105,3.178 129.913,2.683 129.905,2.675 L129.881,2.675 C129.873,2.683 129.681,3.170 129.490,3.658 L129.018,4.889 L130.761,4.889 L130.297,3.658 ZM125.149,5.153 L124.301,5.153 L124.301,7.015 L123.189,7.015 L123.189,1.420 L125.149,1.420 C126.492,1.420 127.308,2.099 127.308,3.290 C127.308,4.441 126.492,5.153 125.149,5.153 ZM125.180,2.435 L124.301,2.435 L124.301,4.177 L125.180,4.177 C125.868,4.177 126.196,3.850 126.196,3.306 C126.196,2.746 125.852,2.435 125.180,2.435 ZM118.637,7.015 L117.526,7.015 L117.526,2.451 L115.742,2.451 L115.742,1.420 L120.421,1.420 L120.421,2.451 L118.637,2.451 L118.637,7.015 ZM111.361,3.274 L111.337,3.274 C111.337,3.282 111.353,3.953 111.353,4.665 L111.353,7.015 L110.241,7.015 L110.241,1.420 L111.369,1.420 L114.048,5.105 L114.072,5.105 C114.072,5.097 114.056,4.401 114.056,3.786 L114.056,1.420 L115.168,1.420 L115.168,7.015 L114.040,7.015 L111.361,3.274 ZM105.413,1.420 L109.388,1.420 L109.388,2.451 L106.525,2.451 L106.525,3.626 L108.676,3.626 L108.676,4.665 L106.525,4.665 L106.525,5.984 L109.420,5.984 L109.420,7.015 L105.413,7.015 L105.413,1.420 ZM101.761,7.015 L99.506,7.015 L99.506,1.420 L101.746,1.420 C103.433,1.420 104.697,2.539 104.697,4.241 C104.697,5.952 103.425,7.015 101.761,7.015 ZM101.682,2.451 L100.618,2.451 L100.618,5.984 L101.698,5.984 C102.673,5.984 103.577,5.464 103.577,4.241 C103.577,3.026 102.673,2.451 101.682,2.451 ZM100.150,14.566 L99.727,13.447 L97.207,13.447 L96.783,14.566 L95.608,14.566 L97.847,8.970 L99.103,8.970 L101.342,14.566 L100.150,14.566 ZM98.871,11.208 C98.679,10.729 98.487,10.233 98.479,10.225 L98.455,10.225 C98.447,10.233 98.255,10.721 98.063,11.208 L97.591,12.439 L99.335,12.439 L98.871,11.208 ZM94.684,3.274 L94.660,3.274 C94.660,3.282 94.676,3.953 94.676,4.665 L94.676,7.015 L93.564,7.015 L93.564,1.420 L94.692,1.420 L97.371,5.105 L97.395,5.105 C97.395,5.097 97.379,4.401 97.379,3.786 L97.379,1.420 L98.491,1.420 L98.491,7.015 L97.363,7.015 L94.684,3.274 ZM88.736,1.420 L92.711,1.420 L92.711,2.451 L89.848,2.451 L89.848,3.626 L91.999,3.626 L91.999,4.665 L89.848,4.665 L89.848,5.984 L92.743,5.984 L92.743,7.015 L88.736,7.015 L88.736,1.420 ZM86.014,5.153 L85.167,5.153 L85.167,7.015 L84.055,7.015 L84.055,1.420 L86.014,1.420 C87.358,1.420 88.174,2.099 88.174,3.290 C88.174,4.441 87.358,5.153 86.014,5.153 ZM86.046,2.435 L85.167,2.435 L85.167,4.177 L86.046,4.177 C86.734,4.177 87.062,3.850 87.062,3.306 C87.062,2.746 86.718,2.435 86.046,2.435 ZM79.227,1.420 L83.202,1.420 L83.202,2.451 L80.338,2.451 L80.338,3.626 L82.490,3.626 L82.490,4.665 L80.338,4.665 L80.338,5.984 L83.234,5.984 L83.234,7.015 L79.227,7.015 L79.227,1.420 ZM75.575,7.015 L73.320,7.015 L73.320,1.420 L75.559,1.420 C77.247,1.420 78.510,2.539 78.510,4.241 C78.510,5.952 77.239,7.015 75.575,7.015 ZM75.495,2.451 L74.432,2.451 L74.432,5.984 L75.511,5.984 C76.487,5.984 77.391,5.464 77.391,4.241 C77.391,3.026 76.487,2.451 75.495,2.451 ZM75.205,12.655 C75.205,12.647 75.189,11.952 75.189,11.336 L75.189,8.970 L76.301,8.970 L76.301,14.566 L75.173,14.566 L72.494,10.825 L72.470,10.825 C72.470,10.833 72.486,11.504 72.486,12.216 L72.486,14.566 L71.374,14.566 L71.374,8.970 L72.502,8.970 L75.181,12.655 L75.205,12.655 ZM69.152,3.690 L72.336,3.690 L72.336,4.601 L69.152,4.601 L69.152,3.690 ZM64.280,3.274 L64.256,3.274 C64.256,3.282 64.272,3.953 64.272,4.665 L64.272,7.015 L63.161,7.015 L63.161,1.420 L64.288,1.420 L66.967,5.105 L66.992,5.105 C66.992,5.097 66.976,4.401 66.976,3.786 L66.976,1.420 L68.087,1.420 L68.087,7.015 L66.959,7.015 L64.280,3.274 ZM59.491,7.119 C57.804,7.119 56.556,5.936 56.556,4.217 C56.556,2.491 57.804,1.308 59.491,1.308 C61.179,1.308 62.426,2.491 62.426,4.217 C62.426,5.936 61.179,7.119 59.491,7.119 ZM59.491,2.355 C58.459,2.355 57.676,3.074 57.676,4.217 C57.676,5.352 58.459,6.072 59.491,6.072 C60.523,6.072 61.307,5.361 61.307,4.217 C61.307,3.074 60.523,2.355 59.491,2.355 ZM59.915,10.001 L57.052,10.001 L57.052,11.176 L59.203,11.176 L59.203,12.216 L57.052,12.216 L57.052,13.534 L59.947,13.534 L59.947,14.566 L55.940,14.566 L55.940,8.970 L59.915,8.970 L59.915,10.001 ZM54.719,1.420 L55.831,1.420 L55.831,7.015 L54.719,7.015 L54.719,1.420 ZM53.956,5.448 C53.956,6.559 53.172,7.119 51.844,7.119 C50.885,7.119 49.789,6.823 49.517,5.592 L50.581,5.305 C50.669,5.856 51.156,6.144 51.844,6.144 C52.452,6.144 52.828,5.912 52.828,5.448 C52.828,4.785 52.076,4.793 51.380,4.625 C50.621,4.449 49.669,4.121 49.669,2.954 C49.669,1.867 50.485,1.308 51.716,1.308 C52.820,1.308 53.620,1.763 53.916,2.746 L52.852,3.026 C52.708,2.555 52.340,2.291 51.692,2.291 C51.076,2.291 50.805,2.531 50.805,2.922 C50.805,3.482 51.396,3.586 52.180,3.746 C53.012,3.906 53.956,4.225 53.956,5.448 ZM49.081,5.448 C49.081,6.559 48.298,7.119 46.970,7.119 C46.010,7.119 44.914,6.823 44.642,5.592 L45.706,5.305 C45.794,5.856 46.282,6.144 46.970,6.144 C47.577,6.144 47.953,5.912 47.953,5.448 C47.953,4.785 47.202,4.793 46.506,4.625 C45.746,4.449 44.794,4.121 44.794,2.954 C44.794,1.867 45.610,1.308 46.842,1.308 C47.946,1.308 48.745,1.763 49.041,2.746 L47.977,3.026 C47.834,2.555 47.465,2.291 46.818,2.291 C46.202,2.291 45.930,2.531 45.930,2.922 C45.930,3.482 46.522,3.586 47.306,3.746 C48.137,3.906 49.081,4.225 49.081,5.448 ZM42.826,1.420 L43.938,1.420 L43.938,7.015 L42.826,7.015 L42.826,1.420 ZM43.228,11.280 C43.237,11.272 43.405,10.969 43.636,10.601 L44.660,8.970 L45.852,8.970 L43.740,12.287 L43.740,14.566 L42.621,14.566 L42.621,12.287 L40.509,8.970 L41.797,8.962 L42.789,10.593 C43.021,10.969 43.197,11.272 43.205,11.280 L43.228,11.280 ZM40.697,5.265 C40.697,4.097 40.713,3.274 40.713,3.266 L40.697,3.266 C40.689,3.274 40.441,3.754 40.089,4.377 L39.385,5.632 L38.753,5.632 L38.049,4.393 C37.689,3.754 37.450,3.274 37.442,3.266 L37.418,3.266 C37.418,3.274 37.434,4.097 37.434,5.265 L37.434,7.015 L36.322,7.015 L36.322,1.420 L37.506,1.420 L39.073,4.225 L39.097,4.225 L40.673,1.420 L41.809,1.420 L41.809,7.015 L40.697,7.015 L40.697,5.265 ZM36.210,10.505 C36.210,9.418 37.026,8.858 38.257,8.858 C39.361,8.858 40.161,9.314 40.457,10.297 L39.393,10.577 C39.249,10.105 38.881,9.842 38.233,9.842 C37.617,9.842 37.346,10.081 37.346,10.473 C37.346,11.032 37.938,11.136 38.721,11.296 C39.553,11.456 40.497,11.776 40.497,12.999 C40.497,14.110 39.713,14.669 38.385,14.669 C37.426,14.669 36.330,14.374 36.058,13.143 L37.122,12.855 C37.210,13.407 37.698,13.694 38.385,13.694 C38.993,13.694 39.369,13.463 39.369,12.999 C39.369,12.336 38.617,12.343 37.922,12.176 C37.162,11.1000 36.210,11.672 36.210,10.505 ZM34.159,3.607 L33.583,4.022 L33.079,3.303 L32.576,4.022 L31.1000,3.607 L32.520,2.903 L31.696,2.656 L31.912,1.984 L32.727,2.248 L32.719,1.377 L33.431,1.377 L33.431,2.248 L34.247,1.984 L34.463,2.656 L33.631,2.903 L34.159,3.607 ZM31.120,3.607 L30.544,4.022 L30.040,3.303 L29.536,4.022 L28.960,3.607 L29.480,2.903 L28.656,2.656 L28.872,1.984 L29.688,2.248 L29.680,1.377 L30.392,1.377 L30.392,2.248 L31.208,1.984 L31.423,2.656 L30.592,2.903 L31.120,3.607 ZM0.535,0.042 L16.437,0.042 L16.437,15.935 L0.535,15.935 L0.535,0.042 ZM1.772,14.699 L15.200,14.699 L15.200,1.278 L1.772,1.278 L1.772,14.699 ZM9.260,12.160 L7.712,12.160 L7.712,8.762 L4.313,8.762 L4.313,7.215 L7.712,7.215 L7.712,3.817 L9.260,3.817 L9.260,7.215 L12.660,7.215 L12.660,8.762 L9.260,8.762 L9.260,12.160 ZM48.183,13.694 C48.791,13.694 49.167,13.463 49.167,12.999 C49.167,12.336 48.415,12.343 47.719,12.176 C46.959,11.1000 46.008,11.672 46.008,10.505 C46.008,9.418 46.824,8.858 48.055,8.858 C49.159,8.858 49.959,9.314 50.254,10.297 L49.191,10.577 C49.047,10.105 48.679,9.842 48.031,9.842 C47.415,9.842 47.143,10.081 47.143,10.473 C47.143,11.032 47.735,11.136 48.519,11.296 C49.351,11.456 50.294,11.776 50.294,12.999 C50.294,14.110 49.511,14.669 48.183,14.669 C47.223,14.669 46.128,14.374 45.856,13.143 L46.919,12.855 C47.008,13.407 47.495,13.694 48.183,13.694 ZM55.366,10.001 L53.582,10.001 L53.582,14.566 L52.471,14.566 L52.471,10.001 L50.687,10.001 L50.687,8.970 L55.366,8.970 L55.366,10.001 ZM63.519,11.776 L63.543,11.776 L65.119,8.970 L66.255,8.970 L66.255,14.566 L65.143,14.566 L65.143,12.815 C65.143,11.648 65.159,10.825 65.159,10.817 L65.143,10.817 C65.135,10.825 64.887,11.304 64.535,11.928 L63.831,13.183 L63.199,13.183 L62.495,11.944 C62.135,11.304 61.895,10.825 61.887,10.817 L61.864,10.817 C61.864,10.825 61.880,11.648 61.880,12.815 L61.880,14.566 L60.768,14.566 L60.768,8.970 L61.951,8.970 L63.519,11.776 ZM70.374,14.566 L69.263,14.566 L69.263,8.970 L70.374,8.970 L70.374,14.566 ZM81.554,10.001 L79.770,10.001 L79.770,14.566 L78.659,14.566 L78.659,10.001 L76.875,10.001 L76.875,8.970 L81.554,8.970 L81.554,10.001 ZM86.103,10.001 L83.240,10.001 L83.240,11.176 L85.391,11.176 L85.391,12.216 L83.240,12.216 L83.240,13.534 L86.135,13.534 L86.135,14.566 L82.128,14.566 L82.128,8.970 L86.103,8.970 L86.103,10.001 ZM91.131,10.809 C91.131,11.616 90.715,12.160 89.995,12.383 L91.315,14.566 L89.995,14.566 L88.867,12.599 L88.508,12.599 L88.068,12.599 L88.068,14.566 L86.956,14.566 L86.956,8.970 L88.939,8.970 C90.323,8.970 91.131,9.674 91.131,10.809 ZM88.068,11.704 L89.019,11.704 C89.627,11.704 89.995,11.448 89.995,10.865 C89.995,10.289 89.643,9.985 89.003,9.985 L88.068,9.985 L88.068,11.704 ZM95.876,10.001 L93.069,10.001 L93.069,11.336 L95.268,11.336 L95.268,12.375 L93.069,12.375 L93.069,14.566 L91.957,14.566 L91.957,8.970 L95.876,8.970 L95.876,10.001 ZM104.220,8.858 C105.515,8.858 106.443,9.562 106.811,10.441 L105.707,10.745 C105.451,10.313 104.964,9.905 104.172,9.905 C103.140,9.905 102.444,10.641 102.444,11.760 C102.444,12.903 103.180,13.622 104.164,13.622 C104.955,13.622 105.515,13.207 105.779,12.647 L106.875,12.935 C106.443,14.014 105.427,14.669 104.220,14.669 C102.564,14.669 101.324,13.502 101.324,11.752 C101.324,10.033 102.564,8.858 104.220,8.858 ZM111.506,10.001 L108.643,10.001 L108.643,11.176 L110.795,11.176 L110.795,12.216 L108.643,12.216 L108.643,13.534 L111.538,13.534 L111.538,14.566 L107.531,14.566 L107.531,8.970 L111.506,8.970 L111.506,10.001 ZM114.310,13.694 C114.917,13.694 115.293,13.463 115.293,12.999 C115.293,12.336 114.541,12.343 113.845,12.176 C113.086,11.1000 112.134,11.672 112.134,10.505 C112.134,9.418 112.950,8.858 114.181,8.858 C115.285,8.858 116.085,9.314 116.381,10.297 L115.317,10.577 C115.173,10.105 114.805,9.842 114.158,9.842 C113.542,9.842 113.270,10.081 113.270,10.473 C113.270,11.032 113.862,11.136 114.645,11.296 C115.477,11.456 116.421,11.776 116.421,12.999 C116.421,14.110 115.637,14.669 114.310,14.669 C113.350,14.669 112.254,14.374 111.982,13.143 L113.046,12.855 C113.134,13.407 113.621,13.694 114.310,13.694 Z"/></svg>